#!OML:ASF \\sashay\E\Suitcase\Project 1\Capture day 1\Session 1\Male1.ASF
:FULLY-SPECIFIED
:DEGREES
316
root 0.836066 17.3407 -27.5015 7.43 -5.96026 -4.02659
lowerback -1.1463 3.13554 -2.47196
upperback -1.72006 4.26026 5.32008
thorax -1.72635 2.22942 6.88701
lowerneck -18.2389 -1.67062 -5.53446
upperneck 21.6805 1.32379 -7.9923
head 10.0285 -0.798651 -1.71724
rclavicle -2.68359e-015 2.3059e-014
rhumerus -9.25756 -9.37989 -68.3366
rradius 29.8188
rwrist -15.2248
rhand -18.4139 29.6716
rfingers 7.12502
rthumb 7.87082 -0.161911
lclavicle -2.68359e-015 2.3059e-014
lhumerus -41.2279 15.0884 82.4527
lradius 29.1219
lwrist -11.8571
lhand -0.572598 40.5437
lfingers 7.12502
lthumb 25.0418 68.9222
rfemur 17.779 1.54506 25.0991
rtibia 9.60128
rfoot -2.97505 -2.64397
rtoes -1.18869
lfemur -31.885 -0.0516255 -15.8916
ltibia 24.1516
lfoot -7.32215 0.865374
ltoes 5.45292
317
root 0.864324 17.346 -27.365 7.03259 -5.77466 -4.10036
lowerback -0.911882 3.1623 -2.2953
upperback -1.55576 4.29156 5.3845
thorax -1.68377 2.23823 6.84447
lowerneck -18.3209 -1.73437 -5.36732
upperneck 21.8901 1.3182 -8.40724
head 10.1266 -0.847338 -1.8993
rclavicle 1.95306e-014 8.74653e-015
rhumerus -9.83768 -9.72895 -67.9974
rradius 29.795
rwrist -15.2768
rhand -18.0308 29.7059
rfingers 7.12502
rthumb 8.24064 -0.113393
lclavicle 1.95306e-014 8.74653e-015
lhumerus -41.0984 15.279 82.4682
lradius 28.8729
lwrist -12.1519
lhand -0.0201168 41.2347
lfingers 7.12502
lthumb 25.5711 69.5382
rfemur 17.6643 1.33503 25.0231
rtibia 11.2273
rfoot -2.36099 -2.48431
rtoes -2.8772
lfemur -31.2391 0.298764 -16.0783
ltibia 24.4333
lfoot -7.47503 -0.348561
ltoes 5.69478
318
root 0.895668 17.3501 -27.2306 6.85799 -5.44275 -3.41794
lowerback -0.882733 3.06333 -2.78345
upperback -1.50681 4.15568 5.15567
thorax -1.64876 2.1726 6.88359
lowerneck -18.3304 -1.75844 -5.79629
upperneck 22.0374 1.28898 -7.86281
head 10.1744 -0.838961 -1.64257
rclavicle -1.26228e-014 3.18055e-015
rhumerus -10.4543 -9.89908 -67.863
rradius 29.7961
rwrist -15.4278
rhand -17.7166 29.7018
rfingers 7.12502
rthumb 8.54384 -0.105317
lclavicle -1.26228e-014 3.18055e-015
lhumerus -40.8269 15.6091 82.2349
lradius 28.2987
lwrist -12.5024
lhand -0.396214 41.3124
lfingers 7.12502
lthumb 25.2108 69.6672
rfemur 17.2465 1.2978 24.2006
rtibia 12.8869
rfoot -1.40994 -2.63383
rtoes 0.513307
lfemur -30.884 0.552404 -17.2082
ltibia 24.6039
lfoot -7.77641 -1.34475
ltoes 8.02933
319
root 0.928978 17.3603 -27.1027 6.74271 -5.40666 -3.16052
lowerback -0.784235 3.05891 -2.76285
upperback -1.47922 4.14568 4.97224
thorax -1.65781 2.16422 6.67217
lowerneck -18.4295 -1.76839 -5.83314
upperneck 22.2748 1.30338 -7.80583
head 10.279 -0.841467 -1.6209
rclavicle 5.2181e-015 9.54166e-015
rhumerus -11.1874 -10.1815 -67.821
rradius 30.0196
rwrist -15.3256
rhand -17.8224 30.1201
rfingers 7.12502
rthumb 8.44173 0.308798
lclavicle 5.2181e-015 9.54166e-015
lhumerus -40.6981 16.0293 81.838
lradius 27.9305
lwrist -13.2507
lhand 0.0791233 41.0446
lfingers 7.12502
lthumb 25.6662 69.3345
rfemur 16.5497 1.11791 23.6695
rtibia 14.7852
rfoot -0.296501 -2.62457
rtoes -0.385925
lfemur -30.297 0.711966 -17.7721
ltibia 24.5963
lfoot -8.17342 -1.77859
ltoes 6.10252
320
root 0.962395 17.3756 -26.9571 6.44858 -5.35378 -2.88591
lowerback -0.632478 3.06597 -2.78851
upperback -1.45382 4.15168 4.83453
thorax -1.70844 2.16632 6.53256
lowerneck -18.2118 -1.73379 -5.73842
upperneck 22.3181 1.36791 -8.04286
head 10.2585 -0.829098 -1.70997
rclavicle 4.11484e-014 2.78299e-014
rhumerus -11.7734 -10.5118 -67.6984
rradius 29.5804
rwrist -14.9396
rhand -17.8079 30.4329
rfingers 7.12502
rthumb 8.45574 0.622163
lclavicle 4.11484e-014 2.78299e-014
lhumerus -40.8058 15.8208 81.8196
lradius 27.9362
lwrist -13.0748
lhand 0.130564 40.7897
lfingers 7.12502
lthumb 25.7154 69.0724
rfemur 16.1475 0.964691 23.1014
rtibia 16.7491
rfoot 0.220219 -2.46119
rtoes 0.85414
lfemur -29.4217 0.681277 -18.2849
ltibia 24.5454
lfoot -8.51805 -1.98331
ltoes 8.29403
321
root 0.985208 17.3932 -26.8324 6.46316 -4.91974 -2.41682
lowerback -0.769883 3.04856 -3.35776
upperback -1.35043 4.12793 4.81671
thorax -1.56185 2.15689 6.85125
lowerneck -18.4172 -1.968 -5.92564
upperneck 22.478 1.10621 -7.94564
head 10.3515 -0.965022 -1.68858
rclavicle 3.20043e-014 9.54166e-015
rhumerus -12.2515 -10.8827 -67.2026
rradius 29.5456
rwrist -15.0787
rhand -18.5583 30.9949
rfingers 7.12502
rthumb 7.73152 1.15626
lclavicle 3.20043e-014 9.54166e-015
lhumerus -40.2526 15.9427 82.0434
lradius 27.4604
lwrist -13.5275
lhand -0.10826 40.8608
lfingers 7.12502
lthumb 25.4867 69.1764
rfemur 15.2894 0.733041 22.5652
rtibia 18.6955
rfoot 1.25598 -2.73595
rtoes 1.85385
lfemur -29.1521 0.703846 -19.1138
ltibia 24.5265
lfoot -8.62704 -2.36333
ltoes 7.33542
322
root 1.02055 17.4157 -26.6963 6.33223 -4.86547 -2.28448
lowerback -0.658732 3.06995 -3.22251
upperback -1.36948 4.15381 4.70175
thorax -1.62846 2.16854 6.64406
lowerneck -17.9928 -2.02536 -5.81056
upperneck 22.2796 0.99399 -8.19267
head 10.1997 -1.01779 -1.80011
rclavicle 3.57812e-015 1.59028e-015
rhumerus -13.1173 -11.1462 -67.0708
rradius 29.5815
rwrist -14.8066
rhand -18.336 30.8795
rfingers 7.12502
rthumb 7.94608 1.04881
lclavicle 3.57812e-015 1.59028e-015
lhumerus -40.3018 15.5852 82.1516
lradius 27.6952
lwrist -13.2269
lhand 0.205317 41.6821
lfingers 7.12502
lthumb 25.787 69.9545
rfemur 14.592 0.629387 22.2054
rtibia 20.6326
rfoot 2.1348 -2.99694
rtoes 3.28917
lfemur -28.509 0.561234 -19.5033
ltibia 24.4611
lfoot -8.95752 -2.02281
ltoes 6.75634
323
root 1.04996 17.4296 -26.5672 6.37483 -4.75289 -2.08607
lowerback -0.780539 3.04258 -3.21384
upperback -1.43572 4.1175 4.54525
thorax -1.61052 2.14929 6.47942
lowerneck -17.7103 -1.99468 -5.72384
upperneck 22.2307 0.957106 -8.10774
head 10.1247 -1.00864 -1.78321
rclavicle -2.80783e-014 -1.66979e-014
rhumerus -13.6487 -11.8097 -67.0125
rradius 29.0945
rwrist -14.4333
rhand -18.3486 31.0385
rfingers 7.12502
rthumb 7.93389 1.20737
lclavicle -2.80783e-014 -1.66979e-014
lhumerus -40.1333 15.82 81.8767
lradius 27.344
lwrist -13.8636
lhand 0.353767 42.0733
lfingers 7.12502
lthumb 25.9292 70.3249
rfemur 13.6515 0.648539 21.8565
rtibia 22.7048
rfoot 3.19 -2.9251
rtoes 3.75746
lfemur -28.106 0.670534 -20.0416
ltibia 24.3639
lfoot -8.85691 -1.79785
ltoes 3.98708
324
root 1.08262 17.4543 -26.4238 6.27644 -4.73044 -1.73068
lowerback -0.96209 3.02313 -3.48295
upperback -1.38099 4.09257 4.48964
thorax -1.46399 2.1349 6.58727
lowerneck -17.8055 -2.08554 -5.85565
upperneck 22.6099 0.932828 -8.18478
head 10.2835 -1.05947 -1.80376
rclavicle -5.06901e-015 7.95139e-016
rhumerus -14.4863 -11.7502 -66.7551
rradius 29.2576
rwrist -14.5318
rhand -18.0532 31.0265
rfingers 7.12502
rthumb 8.21896 1.20638
lclavicle -5.06901e-015 7.95139e-016
lhumerus -39.9732 15.9581 81.9071
lradius 27.2386
lwrist -13.9253
lhand 0.114434 41.0124
lfingers 7.12502
lthumb 25.7 69.2974
rfemur 12.7564 0.509093 21.2378
rtibia 24.9123
rfoot 3.9648 -2.67518
rtoes 4.03037
lfemur -27.31 0.733893 -20.6897
ltibia 24.1669
lfoot -9.09266 -1.80983
ltoes 5.11589
